<svg xmlns="http://www.w3.org/2000/svg" xmlns:xlink="http://www.w3.org/1999/xlink" viewBox="0 0 670 783"><defs><linearGradient id="Sfumatura_senza_nome_354" x1="773.8639" y1="204.9927" x2="274.0675" y2="704.7891" gradientUnits="userSpaceOnUse"><stop offset="0" stop-color="#f57b2c"/><stop offset="0.5406" stop-color="#f5792b"/><stop offset="0.7354" stop-color="#f47229"/><stop offset="0.8736" stop-color="#f26724"/><stop offset="0.9852" stop-color="#ef561e"/><stop offset="1" stop-color="#ef531d"/></linearGradient><linearGradient id="Sfumatura_senza_nome_308" x1="690.1102" y1="-162.1997" x2="549.3993" y2="600.3624" gradientUnits="userSpaceOnUse"><stop offset="0" stop-color="#d2d2d2"/><stop offset="0.5991" stop-color="#d0d0d0"/><stop offset="0.8146" stop-color="#c9c9c9"/><stop offset="0.9679" stop-color="#bebebe"/><stop offset="1" stop-color="#bababa"/></linearGradient><linearGradient id="Sfumatura_senza_nome_148" x1="713.7374" y1="128.2183" x2="221.7132" y2="696.2462" gradientUnits="userSpaceOnUse"><stop offset="0" stop-color="#faaa3a"/><stop offset="1" stop-color="#f36b28"/></linearGradient><linearGradient id="Sfumatura_senza_nome_243" x1="510.7268" y1="459.8086" x2="656.3849" y2="36.5285" gradientUnits="userSpaceOnUse"><stop offset="0" stop-color="#d9d9d9"/><stop offset="0.1635" stop-color="#e1e1e1"/><stop offset="0.4819" stop-color="#e9e9e9"/><stop offset="1" stop-color="#ececec"/></linearGradient><linearGradient id="Sfumatura_senza_nome_61" x1="261.9447" y1="479.7678" x2="91.5958" y2="165.0955" gradientUnits="userSpaceOnUse"><stop offset="0" stop-color="#d9d9d9"/><stop offset="0.0519" stop-color="#dbdbdb"/><stop offset="0.542" stop-color="#e8e8e8"/><stop offset="1" stop-color="#ececec"/></linearGradient><linearGradient id="Sfumatura_senza_nome_146" x1="282.1231" y1="231.0586" x2="191.8778" y2="681.5138" gradientUnits="userSpaceOnUse"><stop offset="0" stop-color="#d2d2d2"/><stop offset="1" stop-color="#bababa"/></linearGradient><linearGradient id="Sfumatura_senza_nome_216" x1="372.9655" y1="179.6013" x2="240.2894" y2="793.6135" gradientUnits="userSpaceOnUse"><stop offset="0" stop-color="#f57b2c"/><stop offset="0.3173" stop-color="#f4772b"/><stop offset="0.6322" stop-color="#f36b26"/><stop offset="0.9451" stop-color="#f0571f"/><stop offset="1" stop-color="#ef531d"/></linearGradient><linearGradient id="Sfumatura_senza_nome_148-2" x1="226.0798" y1="2.9617" x2="127.5191" y2="715.4735" xlink:href="#Sfumatura_senza_nome_148"/><linearGradient id="Sfumatura_senza_nome_10" x1="213.2825" y1="-19.7027" x2="179.2301" y2="174.2928" gradientUnits="userSpaceOnUse"><stop offset="0" stop-color="#f68a1f"/><stop offset="1" stop-color="#f16521"/></linearGradient></defs><title>Asset 1</title><g id="Layer_2" data-name="Layer 2"><g id="Livello_1" data-name="Livello 1"><path d="M616.7844,454.6594a214.2728,214.2728,0,0,1-54.36,35.6312c-48.68,22.5014-107.0906,23.5344-153.23,50.6032C376.911,559.8357,353.1763,592.7414,360.8138,625q-3.4079-7.206-6.1279-14.611c5.7094-48.1513,28.6071-96.9748,60.4577-137.0614,23.2416-29.2468,54.33-53.615,88.587-73.8015,12.6894-7.48,25.8123-14.4117,39.04-21.207a119.5368,119.5368,0,0,0-4.7528,26.6208l68.753-26.1354S647.7234,417.2609,616.7844,454.6594Z" style="fill:url(#Sfumatura_senza_nome_354)"/><path d="M656.2876,401.6668c-9.0274,19.7384-22.5839,37.61-39.5032,52.9926,30.939-37.3985-10.014-75.8549-10.014-75.8549L538.0174,404.94a119.5368,119.5368,0,0,1,4.7528-26.6208c15.7684-8.1019,31.6863-16.0048,47.26-24.3432,12.002-6.4343,28.099-12.7566,33.9132-24.3308,5.1863-10.33,1.4347-22.2649.7622-32.98,0,0-2.9892,11.2009-20.9248,12.4454,0,0,32.3438-55.7057-49.5768-140.4715,40.1905,20.2114,72.6837,49.0225,92.8313,84.6787C673.0126,299.2907,678.1391,353.9385,656.2876,401.6668Z" style="fill:url(#Sfumatura_senza_nome_308)"/><path d="M554.4583,348.9355A161.7319,161.7319,0,0,0,542.77,378.3191c-13.2273,6.7953-26.35,13.7274-39.04,21.207-34.257,20.1865-65.3454,44.5547-88.587,73.8015-31.8506,40.0866-54.7483,88.91-60.4577,137.0614a170.8967,170.8967,0,0,1-1.5844-114.4979c17.3677-50.9515,58.2309-86.558,105.0428-120.1606,6.5463-4.7044,13.3769-9.1848,20.2971-13.6278,2.2866-1.4685,4.5734-2.9246,6.8752-4.3932l.0449-.0374c.9863-.6222,1.973-1.2569,2.9594-1.8792a.2716.2716,0,0,1,.1047-.0622C496.8851,350.7649,521.9052,338.892,554.4583,348.9355Z" style="fill:url(#Sfumatura_senza_nome_148)"/><path d="M623.9438,329.6451c-5.8142,11.5742-21.9112,17.8965-33.9132,24.3308-15.5741,8.3384-31.492,16.2413-47.26,24.3432a161.7319,161.7319,0,0,1,11.6881-29.3836c-32.5531-10.0435-57.5732,1.8294-66.0327,6.7952,17.4871-11.176,34.8248-22.5511,48.6352-36.8136,41.2069-42.5011,19.8487-107.3293,6.9052-155.182,3.4527,1.5681,6.8754,3.1985,10.2234,4.891l.015.0125C636.125,253.4044,603.7812,309.11,603.7812,309.11c17.9356-1.2445,20.9248-12.4454,20.9248-12.4454C625.3785,307.38,629.13,319.3154,623.9438,329.6451Z" style="fill:url(#Sfumatura_senza_nome_243)"/><path d="M476.8956,459.0481c-2.0256,1.2456-3.2234,2.1221-3.4876,2.322" style="fill:none"/><path d="M183.9417,540.2745c5.6717-51.7776,24.8-102.34,15.1655-154.887-5.1256-27.9571-20.2384-55.73-47.1-71.6152-25.47-15.055-57.1218-17.8385-82.3625-33.401a146.7122,146.7122,0,0,1-48.4909-48.5176A149.6284,149.6284,0,0,1,9.6172,208.5562s10.1631-6.182,16.5042-15.8393c0,0,133.8478,112.3207,213.0222,40.3364,45.3733,94.6514-3.1177,152.934-3.1177,152.934,9.899,0,18.7059-6.8124,24.5008-12.7791C204.1448,444.3467,184.8223,535.938,183.9417,540.2745Z" style="fill:url(#Sfumatura_senza_nome_61)"/><path d="M267.7132,364.4888a65.9726,65.9726,0,0,1-7.1865,8.7194C262.8518,370.2709,265.2473,367.3492,267.7132,364.4888Z" style="fill:#ccc"/><path d="M258.9239,445.9614C181.2468,558.99,190.7582,626.33,202.0311,657.301A265.2463,265.2463,0,0,1,183.695,588.7c-2.0255-16.27-1.55-32.3245.2114-48.2561a.238.238,0,0,1,.0176-.0768c0-.0308.0177-.0462.0177-.0924.8806-4.3365,20.2031-95.9278,76.585-167.0663a65.9726,65.9726,0,0,0,7.1865-8.7194c-2.4659,2.86-4.8614,5.7821-7.1865,8.7194-5.7949,5.9667-14.6018,12.7791-24.5008,12.7791,0,0,48.491-58.2826,3.1177-152.934a115.1118,115.1118,0,0,0,19.78-23.9128S359.323,299.8706,258.9239,445.9614Z" style="fill:url(#Sfumatura_senza_nome_146)"/><path d="M267.7132,364.4888a65.9726,65.9726,0,0,1-7.1865,8.7194C262.8518,370.2709,265.2473,367.3492,267.7132,364.4888Z" style="fill:none"/><path d="M375.1755,385.9873c-75.74,187.6113-119.7744,322.9376-89.8308,387.5251-1.92-4.1521-10.1279-9.1345-13.51-12.5023a318.2129,318.2129,0,0,1-25.9277-29.28v-.0153C190.6173,557.6671,310.0041,398.29,310.0041,398.29c82.7852-99.9569,54.7968-287.3529,54.7968-287.3529C393.8461,185.197,415.1061,287.0761,375.1755,385.9873Z" style="fill:url(#Sfumatura_senza_nome_216)"/><path d="M310.0041,398.29S190.6173,557.6671,245.9072,731.715q-2.9326-3.7138-5.7245-7.4737a319.2423,319.2423,0,0,1-29.9612-48.8558c-.1761-.3845-.4051-.8151-.6517-1.3072a.7112.7112,0,0,1-.0528-.1076q-4.016-8.2348-7.4859-16.67c-11.2729-30.9713-20.7843-98.3114,56.8928-211.34,100.3991-146.0908,0-236.8209,0-236.8209C184.9457,326.0132,26.1214,192.7169,26.1214,192.7169v-.0154c4.0688-6.1974,6.57-13.8248,3.8222-22.16v-.0153a361.3079,361.3079,0,0,0,86.7307-6.1051C164.496,154.9485,218.13,133.02,259.1529,85.24,278.2992,62.9267,294.6977,34.97,306.4814,0c0,0,32.2862,44.35,58.32,110.9214v.0154S392.7893,298.3328,310.0041,398.29Z" style="fill:url(#Sfumatura_senza_nome_148-2)"/><path d="M259.1529,85.24C218.13,133.02,164.496,154.9485,116.6743,164.4213v-.0154s78.84-36.7687,47.1347-153.6413c0,0,70.8782,13.6095,95.3263,74.46Z" style="fill:url(#Sfumatura_senza_nome_10)"/><path d="M9.6172,208.5562A152.9255,152.9255,0,0,1,3.03,187.3346C2.7478,186.15.3347,167.6815,0,167.62a267.7672,267.7672,0,0,0,29.9436,2.9064v.0153C36.9715,191.9018,9.6172,208.5562,9.6172,208.5562Z" style="fill:#6d3e17"/><path d="M202.0311,657.301a135.2314,135.2314,0,0,0,7.4859,16.67" style="fill:none"/><path d="M267.7132,364.4889v-.0154a.0159.0159,0,0,0,.0177-.0154" style="fill:none"/><circle cx="210" cy="188" r="14" style="fill:#6d3e17"/></g><g id="Layer_3" data-name="Layer 3"><polygon points="121 502 571 502 554 606 536 606 535 610 151 610 150 606 135 606 121 502" style="fill:#e77e22"/><polygon points="151 610 166.876 783 515.155 783 535 610 151 610" style="fill:#e77e22"/><polygon points="154.88 652.279 530.15 652.279 535 610 151 610 154.88 652.279" style="fill:#d35400"/><path d="M294,783H515l20-173,1-4h18l17-104H394.98C350.1209,564.2961,309.7935,654.2284,294,783Z" style="fill:#8c3900;opacity:0.15"/></g></g></svg>